REM DIRINDEX 1\2,1\3\7,1\3\8,1\4\9,1\4\10,1\4\11,1\5\12,1\5\13,1\5\14,1\6\15,1\6\16,1\6\17
REM DIRNAME "folder01","folder02","folder03","folder04","folder05","folder06","folder07","folder08","folder09","folder10","folder11","folder12","folder13","folder14","folder15","folder16","folder17"
TITLE ""
FILE "2Q_j_1301-1313.mp3" MP3
  TRACK 01 AUDIO
    TITLE "2:cjc174_0116"
    INDEX 01 00:00:00
  TRACK 02 AUDIO
    TITLE "2:cjc174_0117"
    INDEX 01 00:01:23
  TRACK 03 AUDIO
    TITLE "0:"
    INDEX 01 00:04:32
  TRACK 04 AUDIO
    TITLE "2:cjc174_0118"
    INDEX 01 00:05:02
  TRACK 05 AUDIO
    TITLE "0:"
    INDEX 01 00:06:54
  TRACK 06 AUDIO
    TITLE "9:cjc174_0119"
    INDEX 01 00:07:24
  TRACK 07 AUDIO
    TITLE "0:"
    INDEX 01 00:08:63
  TRACK 08 AUDIO
    TITLE "10:cjc174_0120"
    INDEX 01 00:09:33
  TRACK 09 AUDIO
    TITLE "0:"
    INDEX 01 00:10:75
  TRACK 10 AUDIO
    TITLE "11:cjc174_0121"
    INDEX 01 00:11:45
  TRACK 11 AUDIO
    TITLE "0:"
    INDEX 01 00:17:01
  TRACK 12 AUDIO
    TITLE "9:cjc174_0122"
    INDEX 01 00:17:46
  TRACK 13 AUDIO
    TITLE "0:"
    INDEX 01 00:19:15
  TRACK 14 AUDIO
    TITLE "10:cjc174_0123"
    INDEX 01 00:19:61
  TRACK 15 AUDIO
    TITLE "0:"
    INDEX 01 00:21:40
  TRACK 16 AUDIO
    TITLE "11:cjc174_0124"
    INDEX 01 00:22:10
  TRACK 17 AUDIO
    TITLE "0:"
    INDEX 01 00:26:43
  TRACK 18 AUDIO
    TITLE "9:cjc174_0125"
    INDEX 01 00:27:13
  TRACK 19 AUDIO
    TITLE "0:"
    INDEX 01 00:28:44
  TRACK 20 AUDIO
    TITLE "10:cjc174_0126"
    INDEX 01 00:29:14
  TRACK 21 AUDIO
    TITLE "0:"
    INDEX 01 00:32:40
  TRACK 22 AUDIO
    TITLE "11:cjc174_0127"
    INDEX 01 00:33:08
  TRACK 23 AUDIO
    TITLE "0:"
    INDEX 01 00:36:16
  TRACK 24 AUDIO
    TITLE "9:cjc174_0128"
    INDEX 01 00:36:63
  TRACK 25 AUDIO
    TITLE "0:"
    INDEX 01 00:38:07
  TRACK 26 AUDIO
    TITLE "10:cjc174_0129"
    INDEX 01 00:38:52
  TRACK 27 AUDIO
    TITLE "0:"
    INDEX 01 00:43:18
  TRACK 28 AUDIO
    TITLE "11:cjc174_0130"
    INDEX 01 00:43:61
  TRACK 29 AUDIO
    TITLE "0:"
    INDEX 01 00:48:15
  TRACK 30 AUDIO
    TITLE "9:cjc174_0131"
    INDEX 01 00:48:62
  TRACK 31 AUDIO
    TITLE "0:"
    INDEX 01 00:50:04
  TRACK 32 AUDIO
    TITLE "10:cjc174_0132"
    INDEX 01 00:50:47
  TRACK 33 AUDIO
    TITLE "0:"
    INDEX 01 00:52:29
  TRACK 34 AUDIO
    TITLE "11:cjc174_0133"
    INDEX 01 00:52:74
  TRACK 35 AUDIO
    TITLE "0:"
    INDEX 01 00:57:34
  TRACK 36 AUDIO
    TITLE "9:cjc174_0134"
    INDEX 01 00:58:06
  TRACK 37 AUDIO
    TITLE "0:"
    INDEX 01 00:59:42
  TRACK 38 AUDIO
    TITLE "10:cjc174_0135"
    INDEX 01 01:00:12
  TRACK 39 AUDIO
    TITLE "0:"
    INDEX 01 01:03:58
  TRACK 40 AUDIO
    TITLE "11:cjc174_0136"
    INDEX 01 01:04:28
  TRACK 41 AUDIO
    TITLE "0:"
    INDEX 01 01:08:14
  TRACK 42 AUDIO
    TITLE "9:cjc174_0137"
    INDEX 01 01:08:67
  TRACK 43 AUDIO
    TITLE "0:"
    INDEX 01 01:10:13
  TRACK 44 AUDIO
    TITLE "10:cjc174_0138"
    INDEX 01 01:10:60
  TRACK 45 AUDIO
    TITLE "0:"
    INDEX 01 01:14:46
  TRACK 46 AUDIO
    TITLE "11:cjc174_0139"
    INDEX 01 01:15:16
  TRACK 47 AUDIO
    TITLE "0:"
    INDEX 01 01:18:36
  TRACK 48 AUDIO
    TITLE "9:cjc174_0140"
    INDEX 01 01:19:10
  TRACK 49 AUDIO
    TITLE "0:"
    INDEX 01 01:21:26
  TRACK 50 AUDIO
    TITLE "10:cjc174_0141"
    INDEX 01 01:22:02
  TRACK 51 AUDIO
    TITLE "0:"
    INDEX 01 01:23:74
  TRACK 52 AUDIO
    TITLE "11:cjc174_0142"
    INDEX 01 01:24:44
  TRACK 53 AUDIO
    TITLE "0:"
    INDEX 01 01:28:05
  TRACK 54 AUDIO
    TITLE "9:cjc174_0143"
    INDEX 01 01:28:52
  TRACK 55 AUDIO
    TITLE "0:"
    INDEX 01 01:30:39
  TRACK 56 AUDIO
    TITLE "10:cjc174_0144"
    INDEX 01 01:31:11
  TRACK 57 AUDIO
    TITLE "0:"
    INDEX 01 01:32:67
  TRACK 58 AUDIO
    TITLE "11:cjc174_0145"
    INDEX 01 01:33:35
  TRACK 59 AUDIO
    TITLE "0:"
    INDEX 01 01:38:19
  TRACK 60 AUDIO
    TITLE "9:cjc174_0146"
    INDEX 01 01:38:66
  TRACK 61 AUDIO
    TITLE "0:"
    INDEX 01 01:40:22
  TRACK 62 AUDIO
    TITLE "10:cjc174_0147"
    INDEX 01 01:40:69
  TRACK 63 AUDIO
    TITLE "0:"
    INDEX 01 01:44:16
  TRACK 64 AUDIO
    TITLE "11:cjc174_0148"
    INDEX 01 01:44:61
  TRACK 65 AUDIO
    TITLE "0:"
    INDEX 01 01:48:35
  TRACK 66 AUDIO
    TITLE "9:cjc174_0149"
    INDEX 01 01:49:19
  TRACK 67 AUDIO
    TITLE "0:"
    INDEX 01 01:50:32
  TRACK 68 AUDIO
    TITLE "10:cjc174_0150"
    INDEX 01 01:51:04
  TRACK 69 AUDIO
    TITLE "0:"
    INDEX 01 01:56:72
  TRACK 70 AUDIO
    TITLE "11:cjc174_0151"
    INDEX 01 01:57:42
  TRACK 71 AUDIO
    TITLE "0:"
    INDEX 01 02:01:51
  TRACK 72 AUDIO
    TITLE "9:cjc174_0152"
    INDEX 01 02:02:23
  TRACK 73 AUDIO
    TITLE "0:"
    INDEX 01 02:03:48
  TRACK 74 AUDIO
    TITLE "10:cjc174_0153"
    INDEX 01 02:04:18
  TRACK 75 AUDIO
    TITLE "0:"
    INDEX 01 02:06:13
  TRACK 76 AUDIO
    TITLE "11:cjc174_0154"
    INDEX 01 02:06:58
  TRACK 77 AUDIO
    TITLE "0:"
    INDEX 01 02:11:05
  TRACK 78 AUDIO
    TITLE "9:cjc174_0155"
    INDEX 01 02:11:50
  TRACK 79 AUDIO
    TITLE "0:"
    INDEX 01 02:13:11
  TRACK 80 AUDIO
    TITLE "10:cjc174_0156"
    INDEX 01 02:13:60
  TRACK 81 AUDIO
    TITLE "0:"
    INDEX 01 02:14:58
  TRACK 82 AUDIO
    TITLE "11:cjc174_0157"
    INDEX 01 02:15:28
  TRACK 83 AUDIO
    TITLE "0:"
    INDEX 01 02:18:67
